<svg xmlns="http://www.w3.org/2000/svg" viewBox="0 0 512 512"><rect width="512" height="512" fill="#efe6d6"/><g transform="translate(96 96) scale(3.2)"><g fill="none" stroke="#b08a3e" stroke-width="1.5" stroke-linecap="round"><circle cx="50" cy="50" r="46.5"/><path d="M23 63A27 27 0 0 1 77 63"/><path d="M19 63H81"/><path d="M43.53 60.32L25.06 52.67"/><path d="M45.05 58.05L30.91 43.91"/><path d="M47.32 56.53L39.67 38.06"/><path d="M50.00 56.00L50.00 36.00"/><path d="M52.68 56.53L60.33 38.06"/><path d="M54.95 58.05L69.09 43.91"/><path d="M56.47 60.32L74.94 52.67"/></g><g fill="#b08a3e"><circle cx="36.27" cy="60.27" r="1.15"/><circle cx="38.36" cy="55.22" r="1.15"/><circle cx="42.22" cy="51.36" r="1.15"/><circle cx="47.27" cy="49.27" r="1.15"/><circle cx="52.73" cy="49.27" r="1.15"/><circle cx="57.78" cy="51.36" r="1.15"/><circle cx="61.64" cy="55.22" r="1.15"/><circle cx="63.73" cy="60.27" r="1.15"/><circle cx="29.89" cy="59.00" r="1.15"/><circle cx="32.95" cy="51.61" r="1.15"/><circle cx="38.61" cy="45.95" r="1.15"/><circle cx="46.00" cy="42.89" r="1.15"/><circle cx="54.00" cy="42.89" r="1.15"/><circle cx="61.39" cy="45.95" r="1.15"/><circle cx="67.05" cy="51.61" r="1.15"/><circle cx="70.11" cy="59.00" r="1.15"/><circle cx="36" cy="71.5" r="1.1"/><circle cx="43" cy="71.5" r="1.1"/><circle cx="50" cy="71.5" r="1.1"/><circle cx="57" cy="71.5" r="1.1"/><circle cx="64" cy="71.5" r="1.1"/><circle cx="50" cy="76.5" r="1.1"/></g></g></svg>
